<svg
  class="h-full"
  fill="none"
  viewBox="0 0 1647 385"
  xmlns="http://www.w3.org/2000/svg"
>
  <path
    d="m6.653 1.25c-0.642 1.809-4.413 19.184-4.186 19.284 0.106 0.047 3.117 0.572 6.692 1.168 15.078 2.513 26.361 9.961 31.099 20.528 4.49 10.014 4.291 11.287-18.471 117.77-11.345 53.075-20.888 97.738-21.207 99.25l-0.58 2.75h223.17l-0.255 11.534-0.256 11.533-7.5 0.374c-20.199 1.007-34.39 9.487-37.012 22.118-2.911 14.019 7.885 37.55 23.244 50.666 15.403 13.154 30.735 19.359 60.287 24.4 13.063 2.228 41.99 2.256 55.981 0.054 27.629-4.35 47.62-13.885 63.613-30.344 15.453-15.903 26.601-37.17 33.79-64.46 2.849-10.818 38.097-172.54 38.097-174.8 0-0.755-18.821-1.075-63.33-1.075h-63.329l-1.744 8.25c-0.959 4.538-1.984 9.262-2.279 10.5-0.454 1.912-0.127 2.25 2.179 2.25 4.202 0 14.341 2.884 19.718 5.609 7.004 3.549 12.332 8.765 15.438 15.114 4.495 9.187 3.959 13.967-7.591 67.777-5.548 25.85-11.413 51.275-13.032 56.5-5.07 16.357-12.684 26.722-23.576 32.093-8.198 4.042-17.066 5.417-26.661 4.135-24.011-3.208-35.839-19.561-32.873-45.447 0.689-6.012 27.236-131.9 32.586-154.53l0.532-2.25h-130.86l-2.089 9.076c-1.15 4.991-2.09 9.628-2.09 10.305 0 0.751 2.915 1.719 7.494 2.488 9.083 1.526 20.151 6.824 24.423 11.69 8.161 9.294 9.691 18.58 6.086 36.925l-2.263 11.516h-47.37c-26.053 0-47.37-0.192-47.37-0.427 0-0.538 39.892-188.27 40.654-191.32l0.563-2.25h-64.64c-50.809 0-64.735 0.267-65.083 1.25zm588.21 18.376c-0.39 0.389-0.708 78.257-0.708 173.04v172.33h15.006l-0.253-172.75-0.253-172.75-6.542-0.291c-3.599-0.16-6.861 0.028-7.25 0.417zm216.29 35.023c-16.332 3.031-27.168 8.287-36.577 17.74-11.887 11.945-15.962 23.369-15.191 42.585 1.033 25.713 10.561 40.179 46.271 70.25 23.525 19.811 30.082 26.071 36.189 34.551 5.58 7.747 8.211 14.495 9.243 23.7 3.219 28.702-15.996 49.573-45.579 49.508-21.16-0.047-37.183-8.557-43.887-23.308-2.121-4.666-3.979-13.033-4.703-21.175-0.16-1.808-0.833-3-1.694-3-2.326 0-3.022 4.892-3.72 26.14l-0.662 20.141 2.468 2.467c2.847 2.848 11.288 6.232 21.342 8.558 11.029 2.55 38.574 2.196 48.878-0.63 13.834-3.793 22.141-8.476 31.169-17.57 13.38-13.478 19.453-28.341 19.453-47.606 0-28.178-12.041-46.361-51.5-77.772-20.871-16.614-34.974-30.575-38.709-38.318-5.155-10.689-5.475-25.733-0.755-35.484 7.992-16.509 27.29-23.681 50.706-18.844 11.376 2.35 20.226 7.394 24.169 13.775 1.684 2.726 3.37 8.463 5.552 18.893 0.693 3.313 3.318 3.644 3.954 0.5 0.251-1.237 0.697-10.835 0.991-21.327l0.535-19.078-13.221-2.375c-12.61-2.266-37.937-3.58-44.722-2.321zm322.37 1.101c-0.47 0.962-1.11 51.925-1.43 113.25-0.39 75.087-0.93 112.73-1.66 115.27-1.81 6.314-3.86 8.525-9.46 10.187-2.85 0.847-6.92 1.54-9.03 1.54-3.59 0-6.08 2.044-4.46 3.66 0.78 0.782 73.51 0.829 74.29 0.048 0.35-0.342 0.39-1.247 0.09-2.01-0.35-0.93-3.04-1.601-8.12-2.031-17.23-1.456-20.06-5.581-21.72-31.667-0.97-15.409-5.01-159.19-4.48-159.72 0.15-0.153 11.31 11.984 24.79 26.971 67.93 75.491 160.46 171.75 165.1 171.75 0.88 0 1.97-0.562 2.41-1.25 0.45-0.687 1.06-51.65 1.37-113.25 0.4-81.64 0.87-112.92 1.72-115.41 1.86-5.426 4.87-7.884 11.1-9.086 9.74-1.876 10.12-2.01 10.12-3.523 0-0.815-0.34-1.525-0.75-1.578-2.65-0.343-68.99-0.444-70-0.107-1.77 0.59-1.55 2.873 0.33 3.597 0.87 0.334 3.32 0.607 5.45 0.607 6.71 0 14.03 2.081 17.16 4.877 5.64 5.041 5.71 5.913 7.83 98.123 1.06 46.475 1.93 86.075 1.92 88l-0.02 3.5-5.13-5.5c-2.83-3.025-16.65-18.086-30.72-33.469-14.06-15.383-38.35-41.708-53.97-58.5-15.63-16.792-44.13-47.518-63.36-68.281-20.93-22.616-35.66-37.75-36.73-37.75-0.99 0-2.18 0.788-2.64 1.75zm-82.37 1.563c-1.84 0.875-18.84 1.194-64.727 1.213-44.951 0.018-62.539 0.339-63.357 1.157-1.671 1.671 1.429 2.95 8.655 3.572 8.086 0.696 13.645 3.624 16.04 8.445 1.803 3.629 1.901 7.986 2.186 96.8 0.185 57.739-0.09 97.31-0.723 104.37-1.501 16.709-4.782 21.812-14.711 22.875-6.083 0.651-8.285 2.113-5.857 3.888 1.268 0.927 6.579 1.094 21.341 0.671 10.808-0.309 36.527-0.067 57.153 0.539 42.34 1.244 48.36 0.91 51.16-2.84 3.23-4.341 7.46-38.877 4.95-40.429-1.46-0.907-2.73 1.563-4.51 8.819-3.88 15.781-9.18 19.68-29.6 21.771-12.27 1.257-31.674 0.423-38.703-1.664-5.559-1.651-8.394-4.231-11-10.01-1.633-3.621-1.827-8.313-2.11-51.244-0.276-41.877-0.136-47.325 1.233-47.85 0.849-0.326 12.664-0.103 26.26 0.495 22.43 0.988 25.12 1.297 29.21 3.351 5.79 2.908 8.22 6.337 8.78 12.398 0.69 7.507 1.25 9.364 2.8 9.364 1.73 0 2.23-2.832 3.05-17.5 0.34-6.05 1.21-14.6 1.93-19 1.71-10.403 0.7-12.033-4.36-7.088-5.05 4.929-9.18 5.514-41.09 5.822l-27.501 0.266v-94l18-0.294c30.301-0.496 43.751 1.95 48.761 8.871 1.03 1.418 2.43 5.917 3.12 9.999 0.91 5.4 1.7 7.508 2.88 7.736 1.97 0.378 2.32-1.455 3.73-19.246 0.57-7.114 1.5-14.662 2.07-16.773 1.54-5.719 0.14-6.95-5.06-4.48zm352.26 2.24c-2.48 1.809 0.58 3.148 8.41 3.681 8.74 0.595 13.1 2.878 15.83 8.294 1.96 3.893 2 5.963 2 103.47 0 102.44-0.13 106.2-3.97 114.3-2.05 4.307-4.42 5.611-11.57 6.358-6.11 0.638-7.99 1.706-6.19 3.505 0.59 0.594 12.18 1.117 28.86 1.302 15.33 0.17 33.72 0.792 40.87 1.383 22.04 1.821 52.52 1.452 65.67-0.796 33.82-5.782 58.87-20.305 77.24-44.777 17.13-22.817 25.76-49.488 25.82-79.779 0.07-32.307-9.92-59.355-29.65-80.269-19.16-20.309-43.48-31.357-80.08-36.383-11.75-1.614-131.08-1.878-133.24-0.295zm115.14 11.955c28.6 4.247 50.91 15.358 68.71 34.222 22.7 24.069 33.47 57.815 29.9 93.738-4.08 41.081-19.51 65.764-51.01 81.558-16.32 8.184-31.28 11.361-53 11.255-32.57-0.159-49.92-5.421-53-16.075-0.59-2.038-1.5-11.581-2.01-21.206-1.04-19.527-1.35-173.95-0.36-178.91 0.35-1.738 1.52-3.636 2.61-4.218 5.77-3.086 38.44-3.29 58.16-0.363z"
    clip-rule="evenodd"
    fill="currentColor"
    fill-rule="evenodd"
  />
</svg>
